<svg width="120" height="120" viewBox="0 0 120 120" fill="none" xmlns="http://www.w3.org/2000/svg">
<circle cx="60" cy="60" r="60" fill="#25291C"/>
<path d="M85.8465 64.8117L85.8469 35.0341C85.8471 20.2606 73.8713 8.28462 59.0979 8.28453V8.28453V8.28453C45.1269 8.28453 33.4226 19.1979 33.2961 33.1682C33.2902 33.8176 33.287 34.4515 33.287 35.0653" stroke="#EB8F44" stroke-width="6.23105"/>
<ellipse cx="3.44553" cy="3.44437" rx="3.44553" ry="3.44437" transform="matrix(0.999985 0.00543151 -0.00547953 0.999985 29.7969 43.2866)" fill="#EB8F44"/>
<ellipse cx="3.44553" cy="3.44437" rx="3.44553" ry="3.44437" transform="matrix(0.999985 0.00543151 -0.00547953 0.999985 40.9922 43.3271)" fill="#E3E7D3"/>
<path d="M31.6413 65.4012L31.5046 83.909C31.3946 98.8046 43.3314 110.993 58.226 111.194V111.194C73.0136 111.393 85.23 99.6965 85.673 84.9141L85.7603 82.0013" stroke="#E3E7D3" stroke-width="6.23105"/>
<path d="M73.6531 56.9551L73.6168 83.0957C73.6054 91.2821 66.9068 97.8819 58.721 97.7715V97.7715C50.6402 97.6625 44.1645 91.0492 44.2255 82.9678L44.3787 62.6723C44.4185 57.4023 38.3857 54.3869 34.1937 57.5814V57.5814C32.6195 58.7811 31.6954 60.6469 31.6955 62.6261L31.6955 65.8962" stroke="#E3E7D3" stroke-width="6.23105"/>
<path d="M59.0163 21.644L58.965 18.5289L59.016 18.5281L59.067 18.5289L59.0163 21.644ZM58.1514 21.6583L58.1 18.5432L58.1514 21.6583ZM47.7013 46.049C47.7013 47.7697 46.3065 49.1645 44.5858 49.1645C42.8652 49.1645 41.4703 47.7697 41.4703 46.049L47.7013 46.049ZM59.0677 24.7591L58.2028 24.7734L58.1 18.5432L58.965 18.5289L59.0677 24.7591ZM47.7013 35.4495V46.049L41.4703 46.049L41.4703 35.4495L47.7013 35.4495ZM70.5485 57.4726V40.4825H76.7796V57.4726H70.5485ZM70.5485 40.4825V36.5317H76.7796V40.4825H70.5485ZM41.4703 35.4495C41.4703 26.2198 48.8717 18.6954 58.1 18.5432L58.2028 24.7734C52.3752 24.8695 47.7013 29.6211 47.7013 35.4495L41.4703 35.4495ZM59.067 18.5289C68.8956 18.6886 76.7796 26.7018 76.7796 36.5317H70.5485C70.5485 30.1036 65.393 24.8636 58.9657 24.7592L59.067 18.5289Z" fill="#E3E7D3"/>
<ellipse cx="4.20975" cy="4.19838" rx="4.20975" ry="4.19838" transform="matrix(0.999985 0.00543151 -0.00547953 0.999985 81.6328 77.3865)" fill="#E3E7D3"/>
<ellipse cx="86.115" cy="64.7429" rx="4.15403" ry="4.67329" fill="#EB8F44"/>
<circle cx="33.154" cy="34.1074" r="4.15403" fill="#EB8F44"/>
</svg>
