<svg width="217" height="130" viewBox="0 0 217 130" fill="none" xmlns="http://www.w3.org/2000/svg">
<path d="M57.8465 59.8117L57.8469 30.0341C57.8471 15.2606 45.8713 3.28462 31.0979 3.28453V3.28453V3.28453C17.1269 3.28453 5.42265 14.1979 5.29606 28.1682C5.29017 28.8176 5.28705 29.4515 5.28705 30.0653" stroke="#EB8F44" stroke-width="6.23105"/>
<ellipse cx="3.44553" cy="3.44437" rx="3.44553" ry="3.44437" transform="matrix(0.999985 0.00543151 -0.00547953 0.999985 1.79687 38.2866)" fill="#EB8F44"/>
<ellipse cx="3.44553" cy="3.44437" rx="3.44553" ry="3.44437" transform="matrix(0.999985 0.00543151 -0.00547953 0.999985 12.9922 38.3271)" fill="#25291C"/>
<path d="M3.64135 60.4012L3.50464 78.909C3.39462 93.8046 15.3314 105.993 30.226 106.194V106.194C45.0136 106.393 57.23 94.6965 57.673 79.9141L57.7603 77.0013" stroke="#25291C" stroke-width="6.23105"/>
<path d="M45.6531 51.9551L45.6168 78.0957C45.6054 86.2821 38.9068 92.8819 30.721 92.7715V92.7715C22.6402 92.6625 16.1645 86.0492 16.2255 77.9678L16.3787 57.6723C16.4185 52.4023 10.3857 49.3869 6.19375 52.5814V52.5814C4.61945 53.7811 3.69545 55.6469 3.69549 57.6261L3.69555 60.8962" stroke="#25291C" stroke-width="6.23105"/>
<path d="M31.0163 16.644L30.965 13.5289L31.016 13.5281L31.067 13.5289L31.0163 16.644ZM30.1514 16.6583L30.1 13.5432L30.1514 16.6583ZM19.7013 41.049C19.7013 42.7697 18.3065 44.1645 16.5858 44.1645C14.8652 44.1645 13.4703 42.7697 13.4703 41.049L19.7013 41.049ZM31.0677 19.7591L30.2028 19.7734L30.1 13.5432L30.965 13.5289L31.0677 19.7591ZM19.7013 30.4495V41.049L13.4703 41.049L13.4703 30.4495L19.7013 30.4495ZM42.5485 52.4726L42.5485 35.4825H48.7796L48.7796 52.4726H42.5485ZM42.5485 35.4825V31.5317H48.7796V35.4825H42.5485ZM13.4703 30.4495C13.4703 21.2198 20.8717 13.6954 30.1 13.5432L30.2028 19.7734C24.3752 19.8695 19.7013 24.6211 19.7013 30.4495L13.4703 30.4495ZM31.067 13.5289C40.8956 13.6886 48.7796 21.7018 48.7796 31.5317H42.5485C42.5485 25.1036 37.393 19.8636 30.9657 19.7592L31.067 13.5289Z" fill="#25291C"/>
<ellipse cx="4.20975" cy="4.19838" rx="4.20975" ry="4.19838" transform="matrix(0.999985 0.00543151 -0.00547953 0.999985 53.6328 72.3865)" fill="#25291C"/>
<ellipse cx="58.115" cy="59.7429" rx="4.15403" ry="4.67329" fill="#EB8F44"/>
<circle cx="5.15403" cy="29.1074" r="4.15403" fill="#EB8F44"/>
<path d="M77.3311 77.2583C77.529 73.5753 78.4972 70.2827 80.2358 67.3803C82.0338 64.4783 84.3335 62.2029 87.135 60.554C89.9959 58.9055 93.1495 58.0904 96.5957 58.1087C99.329 58.1232 101.436 58.5206 102.918 59.301C104.399 60.0813 104.957 61.2132 104.593 62.6968C104.351 63.5868 103.932 64.1788 103.336 64.4727C102.799 64.7669 102.115 64.8821 101.284 64.8183C100.512 64.7548 99.6209 64.6906 98.6111 64.6258C95.2853 64.3111 92.3125 64.6518 89.6927 65.648C87.1327 66.5851 85.0749 68.0597 83.5193 70.0717C82.0231 72.084 81.2676 74.4865 81.2527 77.2791L77.3311 77.2583ZM77.7062 107.297C76.6367 107.291 75.8065 106.99 75.2154 106.392C74.6244 105.795 74.3317 104.962 74.3374 103.892L74.5605 61.9133C74.5662 60.8437 74.8677 60.0135 75.4651 59.4224C76.0624 58.8314 76.8958 58.5387 77.9654 58.5444C79.0349 58.5501 79.8652 58.8516 80.4562 59.449C81.0472 60.0463 81.3399 60.8797 81.3342 61.9493L81.1111 103.928C81.1054 104.998 80.8039 105.828 80.2065 106.419C79.6092 107.01 78.7758 107.303 77.7062 107.297ZM134.478 108.044C129.844 108.02 125.661 106.928 121.929 104.769C118.256 102.61 115.33 99.6832 113.151 95.9876C111.032 92.2329 109.955 88.0381 109.921 83.4032L110.144 41.3352C110.15 40.2657 110.451 39.4354 111.049 38.8444C111.706 38.1943 112.569 37.872 113.639 37.8777C114.649 37.8831 115.449 38.2142 116.04 38.8709C116.69 39.4686 117.013 40.3021 117.007 41.3717L116.868 67.575C118.843 64.7928 121.44 62.5784 124.657 60.9317C127.934 59.2259 131.563 58.3836 135.544 58.4048C140.12 58.4291 144.214 59.5501 147.826 61.7679C151.44 63.9262 154.276 66.8825 156.336 70.6369C158.455 74.3916 159.502 78.616 159.477 83.31C159.452 88.0635 158.33 92.306 156.112 96.0377C153.953 99.7696 150.996 102.725 147.241 104.903C143.486 107.023 139.232 108.07 134.478 108.044ZM134.512 101.805C137.958 101.824 141.052 101.038 143.794 99.4482C146.536 97.7991 148.687 95.5823 150.246 92.7978C151.865 90.0137 152.684 86.8391 152.703 83.274C152.722 79.7684 151.937 76.6149 150.347 73.8138C148.817 70.9535 146.69 68.7139 143.966 67.0951C141.241 65.4763 138.155 64.6578 134.709 64.6394C131.322 64.6214 128.258 65.4073 125.516 66.9971C122.775 68.5868 120.624 70.8036 119.064 73.6475C117.504 76.4319 116.715 79.577 116.696 83.0826C116.677 86.6477 117.433 89.8307 118.963 92.6315C120.493 95.4324 122.62 97.672 125.344 99.3502C128.069 100.969 131.125 101.787 134.512 101.805ZM172.363 107.8C171.293 107.794 170.433 107.493 169.783 106.895C169.192 106.238 168.899 105.375 168.905 104.306L169.127 62.505C169.133 61.4355 169.435 60.6052 170.032 60.0142C170.689 59.364 171.552 59.0418 172.622 59.0475C173.632 59.0529 174.432 59.3839 175.023 60.0407C175.673 60.6384 175.996 61.4719 175.99 62.5415L175.768 104.342C175.762 105.412 175.431 106.271 174.774 106.922C174.176 107.513 173.373 107.805 172.363 107.8ZM172.582 49.7778C171.275 49.7709 170.148 49.2895 169.203 48.3338C168.257 47.3781 167.788 46.2169 167.795 44.8503C167.803 43.3648 168.284 42.2087 169.24 41.3819C170.254 40.496 171.415 40.0565 172.723 40.0635C173.97 40.0701 175.067 40.5216 176.013 41.4179C177.019 42.2551 177.518 43.4164 177.51 44.9019C177.503 46.2685 177.021 47.4246 176.065 48.3703C175.11 49.3159 173.948 49.7851 172.582 49.7778ZM206.949 107.984C203.8 107.967 200.982 107.209 198.494 105.711C196.066 104.212 194.146 102.182 192.733 99.6192C191.321 96.9972 190.624 94.0225 190.642 90.6951L190.873 47.112C190.879 46.1019 191.18 45.2716 191.778 44.6212C192.435 43.9711 193.268 43.6487 194.278 43.6541C195.289 43.6594 196.119 43.9907 196.769 44.6477C197.419 45.3048 197.741 46.1384 197.736 47.1485L197.504 90.7316C197.488 93.7619 198.366 96.2622 200.138 98.2325C201.911 100.143 204.193 101.106 206.986 101.121L209.392 101.134C210.343 101.139 211.114 101.47 211.704 102.127C212.295 102.783 212.588 103.617 212.582 104.627C212.577 105.637 212.216 106.467 211.5 107.117C210.784 107.707 209.891 107.999 208.821 107.994L206.949 107.984ZM184.975 66.8674C184.083 66.8627 183.342 66.5914 182.751 66.0534C182.16 65.4561 181.867 64.7415 181.871 63.9097C181.876 63.0184 182.177 62.307 182.774 61.7754C183.371 61.1843 184.115 60.8912 185.006 60.8959L207.734 61.0167C208.625 61.0215 209.366 61.3225 209.957 61.9198C210.549 62.4577 210.842 63.1723 210.837 64.0636C210.833 64.8955 210.532 65.6069 209.935 66.1979C209.338 66.7295 208.593 66.993 207.702 66.9882L184.975 66.8674Z" fill="#25291C"/>
<circle cx="173.601" cy="45.8057" r="5.52326" fill="#EB8F44"/>
</svg>
